<svg width="19" height="22" viewBox="0 0 19 22" fill="none" xmlns="http://www.w3.org/2000/svg">
<path d="M15.8502 18.5913H13.0939V13.5283C13.0939 12.321 13.0756 10.7668 11.6604 10.7668C10.2248 10.7668 10.0051 12.0822 10.0051 13.4404V18.591H7.24881V8.17933H9.89487V9.6022H9.93192C10.1967 9.07112 10.5794 8.63423 11.0391 8.33806C11.4989 8.04189 12.0185 7.89753 12.5427 7.92035C15.3363 7.92035 15.8514 10.0757 15.8514 12.8797L15.8502 18.5913ZM4.13877 6.75613C3.82242 6.7562 3.51314 6.64623 3.25007 6.44013C2.987 6.23403 2.78195 5.94106 2.66084 5.59826C2.53972 5.25546 2.50798 4.87823 2.56964 4.51428C2.6313 4.15033 2.7836 3.816 3.00726 3.55357C3.23091 3.29113 3.51589 3.11239 3.82616 3.03993C4.13643 2.96747 4.45804 3.00456 4.75033 3.1465C5.04263 3.28844 5.29248 3.52886 5.46828 3.83735C5.64409 4.14585 5.73796 4.50857 5.73801 4.87964C5.73805 5.12602 5.69671 5.36999 5.61636 5.59764C5.53601 5.82528 5.41824 6.03213 5.26973 6.20638C5.12123 6.38063 4.94491 6.51886 4.75086 6.61319C4.55681 6.70751 4.34883 6.75609 4.13877 6.75613ZM5.51693 18.5913H2.75775V8.17933H5.51693V18.5913ZM17.2244 0.00148657H1.3727C1.01292 -0.00327585 0.666217 0.159701 0.408822 0.454603C0.151426 0.749505 0.00439102 1.1522 0 1.57421V20.2445C0.00424073 20.6668 0.15119 21.0697 0.408576 21.3649C0.665963 21.6602 1.01274 21.8234 1.3727 21.819H17.2244C17.5851 21.8243 17.9328 21.6614 18.1912 21.3662C18.4496 21.071 18.5975 20.6676 18.6025 20.2445V1.57287C18.5974 1.15002 18.4494 0.746863 18.1909 0.451968C17.9325 0.157073 17.5849 -0.00543789 17.2244 0.000138935" fill="#1C1C1C"/>
</svg>
